<svg xmlns="http://www.w3.org/2000/svg" xmlns:xlink="http://www.w3.org/1999/xlink" viewBox="0 0 555.56 313.45"><defs><style>.cls-1{fill:url(#radial-gradient);}.cls-2{fill:url(#linear-gradient);}.cls-3{fill:#f2000a;}.cls-4,.cls-5,.cls-7{fill:#fff;}.cls-5{opacity:0.14;}.cls-6{fill:#ff9299;}.cls-7{opacity:0.58;}</style><radialGradient id="radial-gradient" cx="270.73" cy="241.1" r="346.61" gradientTransform="translate(-142.85 507.78) rotate(-89.44) scale(1 1.7)" gradientUnits="userSpaceOnUse"><stop offset="0.26" stop-color="#1e0000"/><stop offset="0.45" stop-color="red"/><stop offset="1" stop-color="#ccc"/></radialGradient><linearGradient id="linear-gradient" x1="277.93" y1="355.78" x2="277.93" y2="168.89" gradientUnits="userSpaceOnUse"><stop offset="0.6" stop-color="red"/><stop offset="1" stop-color="#1e0000"/></linearGradient></defs><g id="Layer_2" data-name="Layer 2"><g id="Layer_1-2" data-name="Layer 1"><path class="cls-1" d="M526.46,191.54c-.23.7-11.31.39-21.6,3.72L372.55,162.67a114.9,114.9,0,0,0-46.38-1.78l-34.34,5.72a83.4,83.4,0,0,1-27.35,0l-34.37-5.73a115,115,0,0,0-46.39,1.78L51,195.36c-10.38-3.43-21.68-3.11-21.91-3.82-.38-1.13-29.64-1.51-13.5-24.92.48-.7,118.64-118.92,203.31-117.79,19.33,0,39.75,22.72,58.56,22.66h.62c.49,0,1,0,1.49,0,18.39-1.08,38.26-22.62,57.07-22.62,49.1-.66,109.47,38.84,151.62,72.26A625.58,625.58,0,0,1,540,166.62C556.1,190,526.84,190.41,526.46,191.54Z"/><path d="M50.57,206.53l-2.94-1c-5.63-1.86-12-2.42-15.81-2.76a24.13,24.13,0,0,1-6.64-1.25l-.37-.07c-5.59-1.09-18.66-3.62-23.33-15.07-3.1-7.59-1.32-16.29,5.29-25.87,1.87-2.74,17.87-17.31,21.73-20.77C40,129.48,58.14,113.94,79.33,98.38,134.47,57.9,181.47,37.63,219,38.09c12.55,0,23.91,6.56,34.91,12.88,8.34,4.79,17,9.74,23.41,9.78l.5,0,.45,0,.71,0c6.35-.37,14.66-5.15,22.7-9.77,11-6.31,22.35-12.84,34.9-12.87,52.34-.63,115,40.19,158.37,74.59,29.73,23.59,52.46,45.86,53.79,47.74l.07.11c6.61,9.58,8.38,18.28,5.29,25.87-4.68,11.45-17.75,14-23.34,15.07l-.38.07a24.13,24.13,0,0,1-6.63,1.25,72.89,72.89,0,0,0-15.58,2.69l-2.9.94L370,173.09a103.67,103.67,0,0,0-42.05-1.61L293.6,177.2a93.85,93.85,0,0,1-30.88,0l-34.38-5.73a103.68,103.68,0,0,0-42.05,1.61ZM536.64,195h0l0,0Zm-497.46-7.1c0,.09.07.18.1.27C39.25,188,39.22,188,39.18,187.86Zm477.13.18,0,.08ZM32.38,181.28l1.32.12a99.33,99.33,0,0,1,17.58,2.84l129.88-32a125.1,125.1,0,0,1,50.71-1.94L266.24,156a72.47,72.47,0,0,0,23.83,0l34.33-5.72a125.15,125.15,0,0,1,50.72,1.94l129.5,31.9a101.89,101.89,0,0,1,17.23-2.74l1.33-.12a22.85,22.85,0,0,1,3.48-.89c2.62-.51,5.85-1.28,7.31-2.19a16.63,16.63,0,0,0-2.36-4.76,634,634,0,0,0-50-43.93c-40.34-32-97.86-69.95-143.71-69.95h-1.24c-6.85,0-15.72,5.09-24.29,10-10.19,5.86-20.73,11.91-32.15,12.59-.82,0-1.61.07-2.42,0h-.43c-12.16,0-23.34-6.43-34.16-12.65-8.57-4.92-17.44-10-24.29-10h-.14c-31.9-.4-75.08,18.52-124.9,54.79A653.48,653.48,0,0,0,24,173.43a17.22,17.22,0,0,0-2.37,4.77c.93.58,3,1.35,7.31,2.19A22.85,22.85,0,0,1,32.38,181.28Zm-7.91-8.6,0,.06Z"/><path class="cls-2" d="M504.86,195.26c-6.33,2.05-12.38,5.48-15.4,11.38-56.89,101.68-203.53,96.29-211.64,95.91h0c-7.53.36-154.68,6-211.7-95.91-3-5.8-8.86-9.22-15.08-11.28l132.71-32.69a115,115,0,0,1,46.39-1.78l34.37,5.73a83.4,83.4,0,0,0,27.35,0l34.34-5.72a114.9,114.9,0,0,1,46.38,1.78Z"/><path d="M269.48,313.45a345.64,345.64,0,0,1-81.6-10.1c-26.95-6.78-51-16.74-71.43-29.6-25.71-16.17-45.8-37-59.73-61.86l-.18-.35c-1.55-3-5.7-4.92-8.91-6l-35.36-11.7,168.89-41.61a125.1,125.1,0,0,1,50.71-1.94L266.24,156a72.47,72.47,0,0,0,23.83,0l34.33-5.72a125.15,125.15,0,0,1,50.72,1.94l169,41.63-35.92,11.61c-3.3,1.06-7.57,3-9.14,6.06l-.19.35c-13.89,24.83-33.94,45.61-59.57,61.77-20.4,12.86-44.39,22.82-71.28,29.62-44.84,11.33-83.85,10.28-90.17,10C276.45,313.36,273.59,313.45,269.48,313.45ZM75.55,201.55c54,96.18,195.72,90.57,201.73,90.28h1c6,.28,147.79,5.76,201.69-90.28.21-.4.43-.8.66-1.19L370,173.09a103.67,103.67,0,0,0-42.05-1.61L293.6,177.2a93.85,93.85,0,0,1-30.88,0l-34.38-5.73a103.68,103.68,0,0,0-42.05,1.61L75,200.51Z"/><path d="M277.88,82.22c-.25,0-.55,0-.88,0l1.09-14.91V82.22h-.21Zm.21-21.47h0Z"/><path class="cls-3" d="M133.64,207.27l54.47-14.61a101.79,101.79,0,0,1,38.34-1.22l21.07,3.35a233.16,233.16,0,0,0,58.77,1.84l34.15-3.25A101.78,101.78,0,0,1,378.7,197c19.94,5.85,48.32,13.84,46.83,14.27C379.64,224.76,261.82,252.37,133.64,207.27Z"/><path class="cls-4" d="M119.73,108.85S164,71.27,219.29,71.27c27.44,0,30.6,19.51,59.08,19.51s40.09-19.51,67.52-19.51,99.69,43,99.69,43S382.71,77,323.65,92.24a88.43,88.43,0,0,0-15,5.51c-7.55,3.52-22.56,9.91-31.83,9.91-20.57,0-35.48-20.7-60.93-21.09C149.74,85.54,119.73,108.85,119.73,108.85Z"/><path class="cls-5" d="M351.76,231.5S331.1,249,305.34,249c-12.79,0-14.26-9.1-27.54-9.1s-18.7,9.1-31.48,9.1S199.83,229,199.83,229s29.32,17.39,56.85,10.27a41.43,41.43,0,0,0,7-2.57c3.52-1.64,10.52-4.62,14.84-4.62,9.6,0,16.54,9.65,28.41,9.83C337.77,242.37,351.76,231.5,351.76,231.5Z"/><path class="cls-4" d="M128.94,207.4c6.2-3.39,29.29-13.05,37.35-16.39a7.73,7.73,0,0,1,5.6-.16,178.61,178.61,0,0,1,17.39,7.92.65.65,0,0,1,0,1.15c-4.75,2.71-24.39,13.88-32.87,18a7.83,7.83,0,0,1-6.51.15L129,209.14A1,1,0,0,1,128.94,207.4Z"/><path class="cls-4" d="M197.35,194.45c3.06-1,14.41-3.71,18.37-4.65a5.1,5.1,0,0,1,2.71.13c2.68.89,10.77,3,12.19,3.64a.21.21,0,0,1,0,.41c-2.35.81-16.08,3.9-20.26,5.09a4.94,4.94,0,0,1-3.13-.16l-9.86-3.84C197,194.93,197,194.56,197.35,194.45Z"/><path class="cls-6" d="M427.94,161.29l-4.46-21.68L409.61,66.78l-3.47-19.1,8-24.79,8.76-10.07s13.54-4.31,14.29-4.34S456.08,7.06,458,7.37s15,3.75,16.61,4,12.05,12.28,12.05,12.28l0,9.65,11.93-1.24,26.29,4.62L534,42.73s4.53,13.57,4.65,14.88,2.75,7.69,3,10.31.49,15.66.49,15.66-5.46,18.43-6.12,19-13.3,14.8-14.64,15.16-19.44,8.63-20.71,8.76S427.94,161.29,427.94,161.29Z"/><path class="cls-7" d="M410.14,58.8s27.49-46.63,75.2-15c0,0,54.92-2.51,50.82,49.39,0,0,5.05-3.06,5.45-4.46s0-38.38,0-38.38L525.46,37.88l-28.1-5.16-4.8,3.89-11.3-12.3L471.14,9.56,447.88,3.82s-15.36,3.76-16.37,4.73-10,10-10.52,11.07-9.87,14.82-10.2,16-5.38,14.65-5.38,14.65Z"/><path d="M545.83,61a46.29,46.29,0,0,0-7.45-16.13,39.82,39.82,0,0,0-12.61-11.22,38.45,38.45,0,0,0-20-4.9,43.26,43.26,0,0,0-14.61,3.06,46.42,46.42,0,0,0-6.19-14A39.65,39.65,0,0,0,469.34,4c-10.17-5-22-5.26-33.24-.69a52.76,52.76,0,0,0-26.41,24.53,57.52,57.52,0,0,0-6.19,19.38c0,.12,0,.24,0,.36a52.9,52.9,0,0,0-.41,8,52.22,52.22,0,0,0,1.1,9.63l1,4.52c1.64,7.72,3.34,15.69,4.78,23.59l13.72,75,66.28-32.25c7.18-3.49,14.58-6.81,21.73-10l4.34-2a46.83,46.83,0,0,0,4.39-2.27c1.21-.7,2.4-1.46,3.56-2.27l.42-.3a51.58,51.58,0,0,0,5.92-5,56.13,56.13,0,0,0,11.84-16.82A55.31,55.31,0,0,0,545.83,61ZM534.23,93.6a47,47,0,0,1-10,14.15,42.37,42.37,0,0,1-4.61,3.89l-.32.24c-.61.43-1.24.86-1.88,1.26a38.52,38.52,0,0,1-5,2.71l-4.33,2c-7.21,3.24-14.67,6.6-22,10.14l-56.1,27.3L424.6,125.3l-6.15-33.67c-1.47-8-3.18-16.07-4.83-23.84-.32-1.5-.64-3-.95-4.51a43.39,43.39,0,0,1-.92-7.93,45.4,45.4,0,0,1,.35-6.67c.13-1.06.29-2.11.5-3.15a.43.43,0,0,1,0-.11,48.32,48.32,0,0,1,4.73-13.34c8.78-16.69,25.56-25.54,40.73-22.56a29.65,29.65,0,0,1,7.5,2.54c9.8,4.84,16.39,14.6,18.07,26.81l.88,6.32,5.47-3c8.41-4.59,17.44-5.66,25.6-3.21a30.76,30.76,0,0,1,6,2.56C538,50.71,543.51,73.57,534.23,93.6Z"/><path class="cls-4" d="M422.44,34.07c-.6-.73,15.76-22.18,31.94-19.44,5.85,1,10.84,5,10.39,6.56-.59,2-10.32-1.56-22.4,1.46C429.36,25.9,422.83,34.53,422.44,34.07Z"/></g></g></svg>
