<svg xmlns="http://www.w3.org/2000/svg" xmlns:xlink="http://www.w3.org/1999/xlink" viewBox="0 0 619.38 508.22"><defs><style>.cls-1,.cls-5,.cls-7{fill:#fff;}.cls-2{fill:url(#radial-gradient);}.cls-3{fill:url(#linear-gradient);}.cls-4{fill:#f2000a;}.cls-5{opacity:0.14;}.cls-6{fill:#ff9299;}.cls-7{opacity:0.58;}</style><radialGradient id="radial-gradient" cx="302.07" cy="241.1" r="346.61" gradientTransform="translate(-111.81 539.13) rotate(-89.44) scale(1 1.7)" gradientUnits="userSpaceOnUse"><stop offset="0.26" stop-color="#1e0000"/><stop offset="0.45" stop-color="red"/><stop offset="1" stop-color="#ccc"/></radialGradient><linearGradient id="linear-gradient" x1="309.28" y1="355.78" x2="309.28" y2="168.89" gradientUnits="userSpaceOnUse"><stop offset="0.6" stop-color="red"/><stop offset="1" stop-color="#1e0000"/></linearGradient></defs><g id="Layer_2" data-name="Layer 2"><g id="Layer_1-2" data-name="Layer 1"><path class="cls-1" d="M51.23,430.76C21.33,430.76,0,410.33,0,381.91s21.33-48.86,51.23-48.86,51.08,20.35,51.08,48.86-21.26,48.85-51.08,48.85Zm0-23.84c14.16,0,24.4-10.46,24.4-25s-10.24-25-24.4-25-24.55,10.53-24.55,25,10.4,25,24.55,25Z" transform="translate(0 0)"/><path class="cls-1" d="M141.87,430.75c-19.56,0-31.44-10.32-31.67-25.87H134c0,5.25,3.65,7.66,8.34,7.66,3.61,0,7-1.84,7-5.55,0-4.14-5.43-5.32-12.33-6.46-11.12-1.8-25.87-5.16-25.87-22.56,0-14.38,12.26-23.66,30.64-23.66s30.11,9.72,30.39,24.26H149.06c0-4.59-3.08-6.72-7.56-6.72-4,0-6.62,2-6.62,5.29,0,4.08,5.49,5,12.3,6.25,11.33,2,26.4,4.37,26.4,22.56,0,15-12.65,24.81-31.72,24.81Z" transform="translate(0 0)"/><path class="cls-1" d="M220.63,430.75c-23,0-39.61-16.12-39.61-38.32s16.52-38,39.69-38c20.16,0,35.28,12.71,38,31.79H234.62a14.57,14.57,0,0,0-14-9.65c-8.68,0-14.86,6.6-14.86,15.95s6.25,16.1,14.86,16.1a14.47,14.47,0,0,0,14.05-10.47H259c-2.8,19.49-18.13,32.62-38.33,32.62Z" transform="translate(0 0)"/><path class="cls-1" d="M268.7,397.61V356.66h24.72v39.87c0,7.57,4.07,12,10.67,12s10.59-4.53,10.59-12V356.66H339.4v40.95c0,20.07-14.12,33.15-35.31,33.15S268.7,417.68,268.7,397.61Z" transform="translate(0 0)"/><path class="cls-1" d="M354,330.75h24.71V428.4H354Z" transform="translate(0 0)"/><path class="cls-1" d="M470.62,356.58v71.75h-19.1l-2.12-5.08a34,34,0,0,1-21.65,7.51c-21.93,0-37.62-16-37.62-38.3s15.69-38,37.62-38a34,34,0,0,1,21.92,7.71l2.53-5.55Zm-23.5,35.93c0-9.31-6.81-16.3-16.06-16.3s-16.06,7-16.06,16.3,6.8,16.36,16.06,16.36S447.12,401.88,447.12,392.51Z" transform="translate(0 0)"/><path class="cls-1" d="M534.58,406.76V428.4h-17c-15.87,0-25.51-9.69-25.51-25.64V375.69H478.94v-5.78l32.14-34.22h5.08v21h18v19h-17.4v22.83c0,5.14,3.1,8.24,8.31,8.24Z" transform="translate(0 0)"/><path class="cls-1" d="M619.38,391.86a45.68,45.68,0,0,1-.51,6.54H565.59c1.62,8.23,6.85,12.48,14.65,12.48,5.77,0,10.6-2.53,13-6.73H617.8c-5,16.38-19.56,26.61-37.56,26.61-22.39,0-39-16.36-39-38.28s16.45-38.17,39-38.17c23.13,0,39.14,16.5,39.14,37.54ZM566,384.71h29c-2.17-7.17-7.33-11-14.79-11C573,373.67,568,377.59,566,384.71Z" transform="translate(0 0)"/><path class="cls-1" d="M62.93,496.82l-6.69-38.06-16,36.16H39.5l-16-36.12-6.75,38h-2L22.19,455h1.73l15.91,36.33,16-36.33H57.6l7.32,41.82Z" transform="translate(0 0)"/><path class="cls-1" d="M99.58,464.56l-16.44,35.1c-3.12,6.69-5.92,8.56-11,8.56H69.56v-1.78H72c4.43,0,6.63-1.36,9.42-7.3l2-4.11L68.28,464.56H70.4l13.95,28.33,13.18-28.33Z" transform="translate(0 0)"/><path class="cls-1" d="M138.46,463.94c9.6,0,16.39,7.21,16.39,16.75s-6.79,16.76-16.39,16.76a16.1,16.1,0,0,1-14.68-8.92l-.27,8.29h-1.6V453.17h1.91v19.61a16.05,16.05,0,0,1,14.64-8.84Zm14.45,16.75c0-8.6-6.13-14.89-14.56-14.89s-14.62,6.39-14.62,14.89,6.29,14.89,14.62,14.89S152.91,489.29,152.91,480.69Z" transform="translate(0 0)"/><path class="cls-1" d="M160.92,480.69a16.79,16.79,0,1,1,16.79,16.76A16.34,16.34,0,0,1,160.92,480.69Zm31.63,0a14.85,14.85,0,1,0-14.84,14.89A14.48,14.48,0,0,0,192.55,480.69Z" transform="translate(0 0)"/><path class="cls-1" d="M233.47,453.17v43.65h-1.6l-.27-8.22A15.87,15.87,0,0,1,217,497.45c-9.42,0-16.44-7.23-16.44-16.76s7-16.75,16.44-16.75a15.85,15.85,0,0,1,14.59,8.75V453.17Zm-1.82,27.52c0-8.59-6.15-14.89-14.58-14.89s-14.6,6.38-14.6,14.89,6.27,14.89,14.6,14.89S231.65,489.26,231.65,480.69Z" transform="translate(0 0)"/><path class="cls-1" d="M272.11,464.56l-16.44,35.1c-3.13,6.69-5.92,8.56-11.06,8.56h-2.52v-1.78h2.41c4.43,0,6.63-1.36,9.42-7.3l2-4.11-15.06-30.47h2.12l13.95,28.33,13.18-28.33Z" transform="translate(0 0)"/><path class="cls-1" d="M340.36,476.47v20.35h-1.87l0-19.92c0-6.75-3.64-11.17-9.2-11.17-6.41,0-10.86,5-10.9,12.23v18.86h-1.88V476.9c0-6.84-3.6-11.17-9.22-11.17-6.41,0-10.86,5-10.9,12.23v18.86h-1.91V464.56H296l.3,6.57a12,12,0,0,1,11.31-7.19c5.16,0,8.93,3.19,10.26,8.26a12,12,0,0,1,11.7-8.26C336,463.94,340.36,469,340.36,476.47Z" transform="translate(0 0)"/><path class="cls-1" d="M377.61,464.56l-16.44,35.1c-3.12,6.69-5.92,8.56-11.05,8.56h-2.53v-1.78H350c4.43,0,6.63-1.36,9.42-7.3l1.95-4.11-15.06-30.47h2.12l13.95,28.33,13.18-28.33Z" transform="translate(0 0)"/><path class="cls-1" d="M397.37,476c0-12.5,8.89-21.57,21.31-21.57,9.2,0,16.4,5.05,19.27,13.2h-2c-2.78-7-9.11-11.27-17.24-11.27-11.23,0-19.32,8.2-19.32,19.64s8.05,19.55,19.32,19.55c8.35,0,14.83-4.48,17.59-12h2c-2.82,8.66-10.15,13.93-19.58,13.93C406.21,497.43,397.37,488.46,397.37,476Z" transform="translate(0 0)"/><path class="cls-1" d="M473.55,477.74v19.08h-1.91V478.06c0-7.69-4.18-12.33-11.1-12.33A12.46,12.46,0,0,0,448.33,478v18.79h-1.91V453.17h1.91v18.69a14,14,0,0,1,12.57-7.92C468.68,463.94,473.55,469.28,473.55,477.74Z" transform="translate(0 0)"/><path class="cls-1" d="M481.84,480.69a16.79,16.79,0,1,1,16.79,16.76A16.34,16.34,0,0,1,481.84,480.69Zm31.63,0a14.85,14.85,0,1,0-14.84,14.89A14.47,14.47,0,0,0,513.47,480.69Z" transform="translate(0 0)"/><path class="cls-1" d="M523.87,454.06h2.81v3.33h-2.81Zm.45,10.5h1.91v32.26h-1.91Z" transform="translate(0 0)"/><path class="cls-1" d="M535.13,480.69c0-9.62,7.14-16.75,16.56-16.75a15.49,15.49,0,0,1,15,10.15h-1.94a13.83,13.83,0,0,0-13.07-8.29c-8.36,0-14.62,6.41-14.62,14.89a14.48,14.48,0,0,0,14.62,14.89,14,14,0,0,0,13.14-8.38h2a15.76,15.76,0,0,1-15.12,10.25A16.35,16.35,0,0,1,535.13,480.69Z" transform="translate(0 0)"/><path class="cls-1" d="M604.16,481.27H574.05c.29,8.26,6.29,14.3,14.28,14.3a14,14,0,0,0,12.81-7.95h2c-3,6.38-8.24,9.83-14.84,9.83-9.2,0-16.18-7.23-16.18-16.8s7-16.71,16.18-16.71,15.86,7.22,15.86,16.53C604.19,480.72,604.17,481,604.16,481.27Zm-15.83-15.5c-7.8,0-13.72,5.76-14.25,13.7h28.23c-.5-8.17-6.4-13.7-14-13.7Z" transform="translate(0 0)"/><path class="cls-2" d="M557.81,191.54c-.24.7-11.31.39-21.6,3.72L403.9,162.67a115,115,0,0,0-46.39-1.78l-34.33,5.72a83.46,83.46,0,0,1-27.36,0l-34.37-5.73a114.9,114.9,0,0,0-46.38,1.78L82.35,195.36c-10.37-3.43-21.67-3.11-21.91-3.82C60.06,190.41,30.81,190,47,166.62c.48-.7,118.64-118.92,203.31-117.79,19.32,0,39.75,22.72,58.55,22.66h.63c.49,0,1,0,1.49,0,18.38-1.08,38.25-22.62,57.06-22.62,49.11-.66,109.48,38.84,151.62,72.26a626.86,626.86,0,0,1,51.7,45.53C587.45,190,558.19,190.41,557.81,191.54Z" transform="translate(0 0)"/><path d="M81.91,206.53l-2.93-1c-5.63-1.86-12-2.42-15.81-2.76a24.13,24.13,0,0,1-6.64-1.25l-.38-.07c-5.58-1.09-18.65-3.62-23.33-15.07-3.09-7.59-1.32-16.29,5.29-25.87C40,157.79,56,143.22,59.85,139.76c11.49-10.28,29.64-25.82,50.83-41.38C165.82,57.9,212.81,37.63,250.33,38.09c12.55,0,23.92,6.56,34.91,12.88,8.34,4.79,17,9.74,23.42,9.78l.49,0,.45,0,.71,0C316.66,60.36,325,55.58,333,51c11-6.31,22.36-12.84,34.91-12.87,52.34-.63,115,40.19,158.37,74.59,29.73,23.59,52.45,45.86,53.78,47.74l.08.11c6.6,9.58,8.38,18.28,5.28,25.87-4.67,11.45-17.75,14-23.33,15.07l-.38.07a24.13,24.13,0,0,1-6.64,1.25,72.72,72.72,0,0,0-15.57,2.69l-2.91.94L401.33,173.09a103.68,103.68,0,0,0-42.05-1.61l-34.34,5.72a93.79,93.79,0,0,1-30.87,0l-34.38-5.73a103.67,103.67,0,0,0-42.05,1.61ZM568,195h0l0,0Zm-497.46-7.1.09.27Zm477.13.18,0,.08ZM63.73,181.28l1.32.12a99.47,99.47,0,0,1,17.58,2.84l129.87-32a125.15,125.15,0,0,1,50.72-1.94L297.59,156a72.41,72.41,0,0,0,23.82,0l34.34-5.72a125.1,125.1,0,0,1,50.71,1.94L536,184.14a101.59,101.59,0,0,1,17.23-2.74l1.32-.12a22.94,22.94,0,0,1,3.49-.89c2.62-.51,5.85-1.28,7.31-2.19a16.49,16.49,0,0,0-2.37-4.76,631.93,631.93,0,0,0-50-43.93c-40.33-32-97.86-69.95-143.7-69.95H368c-6.84,0-15.71,5.09-24.28,10-10.2,5.86-20.74,11.91-32.15,12.59-.83,0-1.61.07-2.43,0h-.42c-12.16,0-23.35-6.43-34.16-12.65-8.58-4.92-17.44-10-24.29-10h-.15c-31.9-.4-75.07,18.52-124.89,54.79a652.34,652.34,0,0,0-69.91,59.08,16.62,16.62,0,0,0-2.37,4.77c.93.58,3,1.35,7.3,2.19A22.94,22.94,0,0,1,63.73,181.28Zm-7.92-8.6,0,.06Z" transform="translate(0 0)"/><path class="cls-3" d="M536.21,195.26c-6.34,2.05-12.38,5.48-15.4,11.38-56.9,101.68-203.54,96.29-211.65,95.91h0c-7.53.36-154.68,6-211.7-95.91-3-5.8-8.86-9.22-15.09-11.28l132.72-32.69a114.9,114.9,0,0,1,46.38-1.78l34.37,5.73a83.46,83.46,0,0,0,27.36,0l34.33-5.72a115,115,0,0,1,46.39,1.78Z" transform="translate(0 0)"/><path d="M300.83,313.45a345.59,345.59,0,0,1-81.6-10.1c-27-6.78-51-16.74-71.43-29.6-25.71-16.17-45.81-37-59.73-61.86l-.18-.35c-1.56-3-5.7-4.92-8.91-6l-35.37-11.7L212.5,152.24a125.15,125.15,0,0,1,50.72-1.94L297.59,156a72.41,72.41,0,0,0,23.82,0l34.34-5.72a125.1,125.1,0,0,1,50.71,1.94l169,41.63-35.92,11.61c-3.3,1.06-7.57,3-9.14,6.06l-.19.35c-13.9,24.83-33.94,45.61-59.58,61.77-20.4,12.86-44.38,22.82-71.28,29.62-44.84,11.33-83.85,10.28-90.17,10C307.8,313.36,304.93,313.45,300.83,313.45ZM106.89,201.55c54,96.18,195.73,90.57,201.74,90.28h1c6,.28,147.78,5.76,201.69-90.28.21-.4.43-.8.65-1.19L401.33,173.09a103.68,103.68,0,0,0-42.05-1.61l-34.34,5.72a93.79,93.79,0,0,1-30.87,0l-34.38-5.73a103.67,103.67,0,0,0-42.05,1.61L106.32,200.51C106.52,200.85,106.71,201.2,106.89,201.55Z" transform="translate(0 0)"/><path d="M309.23,82.22c-.26,0-.55,0-.88,0l1.09-14.91V82.22h-.21Zm.21-21.47h0Z" transform="translate(0 0)"/><path class="cls-4" d="M165,207.27l54.47-14.61a101.73,101.73,0,0,1,38.33-1.22l21.08,3.35a233.08,233.08,0,0,0,58.76,1.84l34.15-3.25A101.76,101.76,0,0,1,410,197c19.95,5.85,48.33,13.84,46.84,14.27C411,224.76,293.17,252.37,165,207.27Z" transform="translate(0 0)"/><path class="cls-1" d="M151.08,108.85s44.31-37.58,99.56-37.58c27.43,0,30.59,19.51,59.08,19.51s40.08-19.51,67.51-19.51,99.69,43,99.69,43S414.05,77,355,92.24a88.12,88.12,0,0,0-15,5.51c-7.56,3.52-22.56,9.91-31.84,9.91-20.57,0-35.47-20.7-60.92-21.09C181.08,85.54,151.08,108.85,151.08,108.85Z" transform="translate(0 0)"/><path class="cls-5" d="M383.11,231.5S362.45,249,336.69,249c-12.79,0-14.27-9.1-27.55-9.1s-18.69,9.1-31.48,9.1S231.18,229,231.18,229s29.31,17.39,56.85,10.27a41.75,41.75,0,0,0,7-2.57c3.52-1.64,10.52-4.62,14.84-4.62,9.59,0,16.54,9.65,28.41,9.83C369.12,242.37,383.11,231.5,383.11,231.5Z" transform="translate(0 0)"/><path class="cls-1" d="M160.28,207.4c6.2-3.39,29.29-13.05,37.35-16.39a7.76,7.76,0,0,1,5.61-.16,179.72,179.72,0,0,1,17.39,7.92.65.65,0,0,1,0,1.15c-4.74,2.71-24.39,13.88-32.87,18a7.81,7.81,0,0,1-6.5.15l-20.91-8.92A1,1,0,0,1,160.28,207.4Z" transform="translate(0 0)"/><path class="cls-1" d="M228.69,194.45c3.07-1,14.42-3.71,18.38-4.65a5.06,5.06,0,0,1,2.7.13c2.68.89,10.78,3,12.19,3.64a.21.21,0,0,1,0,.41c-2.35.81-16.08,3.9-20.26,5.09a5,5,0,0,1-3.14-.16l-9.86-3.84C228.34,194.93,228.34,194.56,228.69,194.45Z" transform="translate(0 0)"/><path class="cls-6" d="M459.29,161.29l-4.46-21.68L441,66.78l-3.46-19.1,8-24.79,8.77-10.07s13.54-4.31,14.28-4.34,18.89-1.42,20.77-1.11,14.95,3.75,16.61,4S518,23.64,518,23.64l0,9.65,11.93-1.24,26.28,4.62,9.13,6.06S569.83,56.3,570,57.61s2.75,7.69,3,10.31.5,15.66.5,15.66-5.47,18.43-6.12,19-13.31,14.8-14.64,15.16-19.45,8.63-20.71,8.76S459.29,161.29,459.29,161.29Z" transform="translate(0 0)"/><path class="cls-7" d="M441.48,58.8s27.5-46.63,75.2-15c0,0,54.92-2.51,50.82,49.39,0,0,5.06-3.06,5.46-4.46s0-38.38,0-38.38L556.81,37.88,528.7,32.72l-4.8,3.89-11.3-12.3L502.49,9.56,479.23,3.82s-15.36,3.76-16.37,4.73-10,10-10.53,11.07-9.86,14.82-10.19,16-5.38,14.65-5.38,14.65Z" transform="translate(0 0)"/><path d="M577.17,61a46.09,46.09,0,0,0-7.44-16.13,39.74,39.74,0,0,0-12.62-11.22,38.4,38.4,0,0,0-20-4.9,43.31,43.31,0,0,0-14.61,3.06,46.42,46.42,0,0,0-6.19-14A39.58,39.58,0,0,0,500.68,4c-10.17-5-22-5.26-33.23-.69A52.76,52.76,0,0,0,441,27.79a57.3,57.3,0,0,0-6.19,19.38c0,.12,0,.24-.05.36a54.21,54.21,0,0,0-.4,8,52.22,52.22,0,0,0,1.1,9.63l1,4.52c1.64,7.72,3.33,15.69,4.77,23.59l13.72,75,66.29-32.25c7.18-3.49,14.57-6.81,21.73-10l4.34-2a46.83,46.83,0,0,0,4.39-2.27c1.21-.7,2.39-1.46,3.55-2.27l.43-.3a52.35,52.35,0,0,0,5.91-5,56.16,56.16,0,0,0,11.85-16.82A55.25,55.25,0,0,0,577.17,61ZM565.58,93.6a47.19,47.19,0,0,1-10,14.15,42.37,42.37,0,0,1-4.61,3.89l-.32.24c-.62.43-1.24.86-1.88,1.26a38.52,38.52,0,0,1-5,2.71l-4.33,2c-7.21,3.24-14.67,6.6-22,10.14l-56.1,27.3L456,125.3l-6.16-33.67c-1.46-8-3.17-16.07-4.83-23.84-.31-1.5-.63-3-.95-4.51a43.38,43.38,0,0,1-.91-7.93,46.81,46.81,0,0,1,.34-6.67c.13-1.06.3-2.11.5-3.15l0-.11a48.62,48.62,0,0,1,4.72-13.34c8.79-16.69,25.57-25.54,40.74-22.56a29.59,29.59,0,0,1,7.49,2.54c9.81,4.84,16.4,14.6,18.08,26.81l.88,6.32,5.47-3c8.41-4.59,17.44-5.66,25.59-3.21a30.26,30.26,0,0,1,6,2.56C569.31,50.71,574.85,73.57,565.58,93.6Z" transform="translate(0 0)"/><path class="cls-1" d="M453.79,34.07c-.61-.73,15.76-22.18,31.93-19.44,5.86,1,10.85,5,10.4,6.56-.59,2-10.33-1.56-22.41,1.46C460.7,25.9,454.18,34.53,453.79,34.07Z" transform="translate(0 0)"/></g></g></svg>